<?xml version="1.0" standalone="no"?>
<!DOCTYPE svg PUBLIC "-//W3C//DTD SVG 20010904//EN"
 "http://www.w3.org/TR/2001/REC-SVG-20010904/DTD/svg10.dtd">
<svg version="1.0" xmlns="http://www.w3.org/2000/svg"
 width="96.000000pt" height="96.000000pt" viewBox="0 0 96.000000 96.000000"
 preserveAspectRatio="xMidYMid meet">

<g transform="translate(0.000000,96.000000) scale(0.100000,-0.100000)"
fill="#000000" stroke="none">
<path d="M503 703 c-7 -2 -31 -62 -53 -131 -23 -70 -43 -132 -45 -139 -3 -9
-13 -8 -42 4 -21 8 -49 20 -63 25 -24 10 -22 12 36 38 39 18 63 35 66 48 8 28
-13 66 -37 70 -21 3 -202 -67 -242 -93 -28 -19 -32 -74 -5 -97 20 -18 214 -98
236 -98 11 0 16 -9 16 -30 0 -47 61 -68 92 -32 9 9 33 71 53 137 21 66 38 121
39 122 2 2 30 -9 65 -24 34 -14 58 -30 54 -33 -5 -4 -30 -15 -56 -25 -58 -22
-77 -54 -52 -91 8 -13 25 -24 36 -24 26 0 219 78 242 98 26 23 22 78 -6 97
-29 19 -216 95 -234 95 -8 0 -13 12 -13 35 0 45 -40 68 -87 48z m56 -50 c0
-16 -26 -104 -57 -198 -50 -148 -60 -170 -79 -173 -34 -5 -30 19 28 202 60
188 63 196 89 196 15 0 20 -7 19 -27z m-184 -87 c0 -15 -18 -27 -76 -50 -42
-17 -77 -35 -78 -41 -1 -5 28 -23 66 -38 81 -33 103 -51 85 -69 -14 -14 -60 0
-178 52 -60 27 -65 32 -62 57 3 25 14 32 103 70 108 45 140 50 140 19z m350
-19 c89 -38 100 -45 103 -70 3 -25 -2 -30 -62 -57 -118 -52 -164 -66 -178 -52
-18 18 4 36 85 69 38 15 69 32 70 37 1 4 -32 22 -73 38 -85 34 -95 41 -87 62
9 23 31 19 142 -27z"/>
</g>
</svg>
